<svg width="236" height="266" viewBox="0 0 236 266" fill="none" xmlns="http://www.w3.org/2000/svg">
<path d="M205.478 227.452C199.398 234.594 193.958 238.792 189.793 241.961C149.171 272.869 102.736 263.96 88.3794 260.915C65.2169 256.003 45.6645 252.537 28.8655 235.242C-9.30685 195.943 -7.4502 113.963 21.7181 63.1796C25.1767 57.1581 54.3008 7.96374 100.836 1.03177C101.975 0.862178 102.824 0.765693 103.568 0.675903C110.767 -0.192617 155.377 -4.77666 191.752 29.9506C196.959 34.9216 205.339 43.888 213.109 57.5633C241.522 107.567 241.612 185.01 205.478 227.452Z" fill="url(#paint0_linear_3_425)"/>
<path d="M141.91 207.602L225.679 192.027C232.674 190.713 235.472 183.915 234.281 175.711L214.409 38.8041C213.239 30.7462 206.805 25.1861 199.908 26.2725L114.457 38.8308C107.175 39.9778 102.262 48.048 103.691 56.5157L127.153 195.524C128.505 203.535 135.048 208.89 141.91 207.602Z" fill="url(#paint1_linear_3_425)"/>
<path d="M226.148 187.133C231.439 186.14 235.001 180.211 234.087 173.916L214.714 40.4416C213.808 34.1999 208.971 29.9588 203.703 30.7864L121.706 42.7653C121.622 42.7782 121.539 42.7927 121.456 42.8081C118.849 43.2977 116.587 44.9822 115.088 47.5512C113.589 50.1188 113.051 53.2362 113.572 56.3292L136.401 191.86C137.446 198.063 142.368 202.152 147.606 201.168L226.148 187.133Z" fill="#FFBC07"/>
<mask id="mask0_3_425" style="mask-type:luminance" maskUnits="userSpaceOnUse" x="116" y="34" width="115" height="164">
<path d="M146.05 197.457C143.003 197.457 140.343 194.798 139.726 191.134L116.897 55.6031C116.544 53.5092 116.903 51.409 117.907 49.6891C118.88 48.021 120.336 46.9299 122.007 46.6164C122.057 46.6068 122.111 46.5974 122.164 46.589L204.133 34.6145C204.448 34.5651 204.734 34.5427 205.015 34.5427C208.15 34.5427 210.823 37.2888 211.373 41.0722L230.746 174.547C231.045 176.605 230.656 178.66 229.65 180.334C228.676 181.956 227.236 183.019 225.597 183.327L147.081 197.358C146.721 197.425 146.383 197.457 146.05 197.457Z" fill="white"/>
</mask>
<g mask="url(#mask0_3_425)">
<path opacity="0.75" d="M216.076 42.5329C215.483 39.0991 212.601 36.8256 209.572 37.4013L185.949 41.8914C182.827 42.4851 180.733 45.8748 181.297 49.4249L187.278 87.074C187.775 90.2046 190.406 92.2831 193.153 91.7164L223.492 85.4582L216.076 42.5329Z" fill="#7D97F4"/>
<path opacity="0.75" d="M234.955 185.216C238.023 184.516 240.016 181.121 239.412 177.622L236.082 158.348C223.374 161.039 195.723 167.438 182.151 170.595C180.199 171.049 178.908 173.173 179.219 175.415L181.324 190.573C181.828 194.204 184.882 196.627 188.044 195.906L234.955 185.216Z" fill="#7D97F4"/>
<path opacity="0.75" d="M169.84 45.7216L177.053 91.1256C177.385 93.2178 176.166 95.2207 174.33 95.5994L152.1 100.185C151.303 100.349 150.481 100.182 149.784 99.7144L121.199 80.5403C120.316 79.9478 119.716 78.9306 119.569 77.7747L116.461 53.3282C116.189 51.1871 117.518 49.2109 119.403 48.9538L166.115 42.585C167.889 42.343 169.522 43.7178 169.84 45.7216Z" fill="#7D97F4"/>
<path opacity="0.75" d="M117.703 93.5571L148.153 111.108C148.655 111.398 149.23 111.483 149.782 111.35L170.582 106.336C172.628 105.843 174.255 108.285 173.29 110.398L161.679 135.801C161.426 136.356 161.341 136.991 161.439 137.606L165.051 160.345C165.295 161.877 164.402 163.345 163.057 163.622L133.74 169.669C132.428 169.94 131.163 168.977 130.881 167.491L116.877 93.8411L117.703 93.5571Z" fill="#7D97F4"/>
<path opacity="0.75" d="M135.301 177.917C142.609 176.614 157.818 174.079 164.625 172.949C166.582 172.624 168.447 174.004 168.984 176.174L174.251 197.479C174.933 200.239 173.201 203.011 170.689 203.179L139.48 205.264C137.528 205.394 135.787 203.872 135.391 201.689L132.054 183.26C131.598 180.748 133.077 178.314 135.301 177.917Z" fill="#7D97F4"/>
<path opacity="0.75" d="M181.493 159.806L230.017 145.493C232.085 144.883 233.378 142.541 232.965 140.152L225.916 99.3469C225.483 96.8385 223.338 95.2143 221.14 95.7312C212.013 97.8788 199.519 100.824 191.824 102.638C190.586 102.93 189.564 103.879 188.998 105.167C188.995 105.174 188.992 105.18 188.99 105.186L175.511 135.624C174.593 137.697 174.27 140.047 174.589 142.34L176.496 156.073C176.868 158.754 179.187 160.487 181.493 159.806ZM192.38 132.843L199.276 114.883C199.715 113.739 200.626 112.919 201.705 112.696L217.145 109.511C218.934 109.142 220.646 110.496 220.97 112.534L223.271 127.018C223.582 128.979 222.494 130.875 220.792 131.335L196.155 137.995C193.513 138.71 191.291 135.677 192.38 132.843Z" fill="#7D97F4"/>
</g>
<mask id="mask1_3_425" style="mask-type:luminance" maskUnits="userSpaceOnUse" x="116" y="34" width="115" height="164">
<path d="M146.05 197.457C143.003 197.457 140.343 194.798 139.726 191.134L116.897 55.6031C116.544 53.5092 116.903 51.409 117.907 49.6891C118.88 48.021 120.336 46.9299 122.007 46.6164C122.057 46.6068 122.111 46.5974 122.164 46.589L204.133 34.6145C204.448 34.5651 204.734 34.5427 205.015 34.5427C208.15 34.5427 210.823 37.2888 211.373 41.0722L230.746 174.547C231.045 176.605 230.656 178.66 229.65 180.334C228.676 181.956 227.236 183.019 225.597 183.327L147.081 197.358C146.721 197.425 146.383 197.457 146.05 197.457Z" fill="white"/>
</mask>
<g mask="url(#mask1_3_425)">
<path d="M171.195 135.028C170.22 135.028 169.287 134.53 168.659 133.643C167.895 132.563 167.72 131.102 168.205 129.829L178.959 101.547L149.724 107.666C148.943 107.83 148.14 107.664 147.459 107.2L113.377 83.9735C112.496 83.3733 112.209 82.0729 112.735 81.0691C113.262 80.0649 114.404 79.7387 115.284 80.3385L149.22 103.465L179.124 97.2062C180.312 96.9558 181.517 97.4726 182.268 98.5496C183.02 99.627 183.188 101.081 182.708 102.343L171.959 130.609L207.819 122.504L207.005 111.77C206.916 110.604 207.673 109.578 208.696 109.477C209.717 109.377 210.619 110.239 210.708 111.405L211.558 122.6C211.702 124.493 210.577 126.199 208.941 126.569L171.834 134.956C171.621 135.004 171.407 135.028 171.195 135.028Z" fill="white"/>
</g>
<path d="M207.839 106.869C210.856 106.869 213.301 104.082 213.301 100.644C213.301 97.2066 210.856 94.4197 207.839 94.4197C204.822 94.4197 202.376 97.2066 202.376 100.644C202.376 104.082 204.822 106.869 207.839 106.869Z" fill="white"/>
<path d="M235.365 31.9164C235.365 43.7553 219.717 73.959 211.566 88.8574C210.933 90.0135 209.57 90.7157 207.047 90.7157C205.852 90.7157 206.322 90.0105 205.69 88.8544C197.538 73.9547 181.892 43.7539 181.892 31.9164C181.892 16.4792 193.862 3.96484 208.628 3.96484C223.395 3.96484 235.365 16.4792 235.365 31.9164Z" fill="#FFBC07"/>
<path d="M233.785 31.9163C233.785 43.7552 218.137 73.9589 209.985 88.8573C209.353 90.0134 208.241 90.7161 207.046 90.7155C205.85 90.7149 204.742 90.0104 204.109 88.8543C195.957 73.9545 180.311 43.7537 180.311 31.9162C180.311 16.479 192.282 3.9646 207.048 3.9646C221.814 3.9647 233.785 16.4791 233.785 31.9163Z" fill="#222834"/>
<path opacity="0.36" d="M219.238 46.3524C225.61 39.0907 225.61 27.317 219.238 20.0553C212.865 12.7935 202.533 12.7935 196.16 20.0553C189.788 27.317 189.788 39.0907 196.16 46.3524C202.533 53.6142 212.865 53.6142 219.238 46.3524Z" fill="white"/>
<path opacity="0.36" d="M206.117 44.8947C212.67 44.8947 217.982 38.8416 217.982 31.3747C217.982 23.9078 212.67 17.8547 206.117 17.8547C199.565 17.8547 194.253 23.9078 194.253 31.3747C194.253 38.8416 199.565 44.8947 206.117 44.8947Z" fill="#353F54"/>
<path d="M207.049 57.0329C195.993 57.0329 186.999 46.7834 186.999 34.1848C186.999 33.825 187.255 33.5332 187.57 33.5332C187.886 33.5332 188.142 33.825 188.142 34.1848C188.142 46.0646 196.624 55.7296 207.049 55.7296C217.475 55.7296 225.956 46.0646 225.956 34.1848C225.956 22.3047 217.475 12.6397 207.049 12.6397C201.021 12.6397 195.493 15.8019 191.884 21.3157C191.696 21.6037 191.338 21.6641 191.084 21.4484C190.831 21.2329 190.778 20.8247 190.967 20.5361C194.795 14.6898 200.656 11.3364 207.049 11.3364C218.105 11.3364 227.1 21.5862 227.1 34.1848C227.1 46.7834 218.105 57.0329 207.049 57.0329Z" fill="white"/>
<path opacity="0.75" d="M94.6692 264.685C94.966 265.528 95.7203 266.056 96.5194 265.995C99.6638 265.755 108.019 264.646 113.424 259.556C113.781 259.219 113.811 258.652 113.561 258.265C112.167 259.55 109.856 261.05 106.033 262.622C100.157 265.039 96.6812 265.102 94.6692 264.685Z" fill="#7D97F4"/>
<path d="M95.3376 257.096C95.3376 257.096 93.2975 260.61 94.6567 264.656C94.6601 264.666 94.6653 264.675 94.6688 264.684C96.6808 265.101 100.157 265.038 106.033 262.622C109.856 261.049 112.166 259.55 113.56 258.265C113.481 258.143 113.375 258.038 113.241 257.965C110.287 256.37 102.003 252.673 95.3376 257.096Z" fill="#FFBC07"/>
<path d="M71.9524 198.137C72.3264 199.101 91.6266 212.746 91.6266 212.746C89.1079 222.932 90.7284 240.827 93.0014 259.939C97.1687 260.754 100.347 258.739 102.924 255.003L103.602 208.624C103.616 207.714 103.385 206.823 102.938 206.07C97.3934 196.725 88.3568 185.653 78.9206 174.383L71.9524 198.137Z" fill="#222834"/>
<path opacity="0.75" d="M11.079 225.593C10.4835 226.138 10.2347 227.171 10.4567 228.131C11.3304 231.905 14.0202 241.832 19.1827 247.3C19.5235 247.661 19.9745 247.574 20.2223 247.185C18.9128 245.768 17.2354 243.283 15.1714 238.973C11.9989 232.349 11.1915 228.133 11.079 225.593Z" fill="#7D97F4"/>
<path d="M17.1645 224.752C17.1645 224.752 13.969 223.036 11.0994 225.572C11.0923 225.578 11.0867 225.586 11.0796 225.593C11.1921 228.132 11.9995 232.349 15.1719 238.973C17.236 243.283 18.9134 245.768 20.2228 247.184C20.3013 247.061 20.3604 246.909 20.388 246.73C20.9923 242.787 22.0796 231.9 17.1645 224.752Z" fill="#FFBC07"/>
<path d="M81.4178 177.373C76.1897 183.73 73.9238 190.949 71.9539 198.138L58.4295 221.906C57.8829 222.847 57.0297 223.5 56.0589 223.722L19.002 232.173C15.8149 229.634 14.1313 226.515 14.6054 222.561C28.1408 216.817 42.3351 210.409 49.5965 210.995C51.837 196.056 53.6164 178.411 57.5757 173.559L81.2855 175.177L81.4178 177.373Z" fill="#222834"/>
<path d="M66.3674 168.974L59.8725 165.622C57.5979 164.448 56.1672 161.829 56.2466 158.985L57.2944 121.452C57.4482 115.94 61.6106 111.691 66.4352 112.121L80.1072 113.339C82.3869 113.542 84.0034 115.962 83.5684 118.52L74.9876 168.974L66.3674 168.974Z" fill="#353F54"/>
<path d="M127.826 108.153C127.776 109.914 127.422 115.538 123.672 120.67C120.393 125.157 116.368 126.737 114.804 127.25C114.873 128.378 115.168 130.906 116.785 133.284C117.616 134.507 118.533 135.303 119.224 135.8C123.068 133.438 125.37 130.7 126.796 128.496C131.933 120.561 132.721 108.743 132.721 108.742L127.826 108.153Z" fill="url(#paint2_linear_3_425)"/>
<path d="M98.157 121.081L102.162 135.871C104.199 136.937 107.657 138.389 112.112 138.579C114.539 138.682 116.674 138.386 118.417 137.971C119.627 137.683 120.236 136.145 119.657 134.9C119.301 134.133 118.951 133.29 118.625 132.372C117.745 129.894 117.318 127.643 117.103 125.885C110.788 124.284 104.472 122.682 98.157 121.081Z" fill="#353F54"/>
<path d="M74.7233 114.608C68.843 114.981 59.6127 121.082 54.3435 129.414C53.3583 130.972 60.015 139.449 61.9312 138.6C65.4283 137.051 70.0287 131.053 70.9772 131.434C69.7212 147.618 65.5093 158.537 61.5836 165.767C59.109 170.325 56.3557 174.139 57.5502 176.746C59.5229 181.051 70.7976 178.86 80.8132 176.019L100.133 141.522C102.211 137.812 103.576 133.556 104.125 129.083L104.888 122.86C104.888 122.86 87.5364 113.795 74.7233 114.608Z" fill="#FFBC07"/>
<path d="M87.7733 105.444L82.7259 117.764C82.418 118.516 82.5096 119.424 82.9617 120.052C84.1839 121.75 87.0705 124.507 92.0916 122.531C92.6452 122.313 93.0436 121.706 93.1277 120.99L94.4421 109.801L87.7733 105.444Z" fill="url(#paint3_linear_3_425)"/>
<path d="M99.6941 89.3921C99.6941 89.3921 103.171 99.3523 103.404 104.58C103.638 109.808 104.541 113.2 99.6941 114.253C94.8468 115.306 90.7635 112.294 88.5512 107.087C88.5512 107.087 85.0851 99.0628 85.8627 95.7766C86.6402 92.4905 99.6941 89.3921 99.6941 89.3921Z" fill="url(#paint4_linear_3_425)"/>
<path d="M84.8109 91.2C81.7173 94.9956 81.6319 97.4077 81.9121 98.7376C82.1795 100.006 83.1271 101.401 85.0223 104.191C85.3722 104.706 86.0205 106.105 87.1316 107.794C87.3727 108.16 87.534 108.525 87.6313 108.882C88.0478 108.893 88.3543 108.832 88.5492 108.77C88.7042 108.721 88.8083 108.544 88.7985 108.345L88.6641 105.633C87.0468 103.939 87.4084 100.256 89.7411 99.445C89.4799 97.8505 89.5142 96.2598 90.5133 95.7487C92.7318 94.614 101.52 92.3794 103.415 88.4908C103.978 87.3374 104.211 86.0805 104.196 84.8535C97.4106 84.7818 89.8648 85.6453 84.8109 91.2Z" fill="url(#paint5_linear_3_425)"/>
<path d="M90.3582 104.297C90.3582 104.297 89.0317 97.9344 86.7443 99.7184C84.4569 101.502 87.9313 106.847 89.7703 107.085L90.3582 104.297Z" fill="url(#paint6_linear_3_425)"/>
<path d="M76.3552 166.055C74.8032 164.285 71.422 163.543 69.8427 163.283C68.0812 161.459 65.7778 158.611 63.937 154.556C60.4219 146.813 61.819 138.621 61.3448 138.621C60.0334 138.621 55.8518 133.047 54.8028 131.542C54.8028 131.542 52.8411 138.289 53.0873 143.615C53.766 158.295 67.1528 165.914 67.8233 166.281C68.6573 170.551 72.3408 174.243 73.6577 174.383C74.2644 174.447 78.418 168.408 76.3552 166.055Z" fill="url(#paint7_linear_3_425)"/>
<path d="M64.2493 151.621C67.6338 150.418 78.5995 112.649 72.8907 114.214C75.0022 112.916 78.281 113.424 81.743 114.214C81.1658 128.323 74.2317 141.933 66.2366 155.181L64.2493 151.621Z" fill="#222834"/>
<path d="M130.62 109.867C130.813 110.389 129.16 111.391 127.968 109.298C127.847 108.248 126.914 103.791 127.397 102.874C129.967 97.9865 135.207 91.646 135.207 91.646C136.26 92.6284 135.552 93.7785 135.552 93.7785L133.052 97.36C133.729 98.4913 134.518 99.4229 134.967 100.831C135.307 101.897 135.249 103.08 134.846 104.126C134.442 105.176 133.885 106.543 133.341 107.625C132.311 109.673 130.62 109.867 130.62 109.867Z" fill="url(#paint8_linear_3_425)"/>
<path d="M131.725 107.458L131.44 107.431C131.455 107.229 131.81 102.491 132.294 101.374C132.498 100.901 132.557 100.527 132.467 100.261C132.405 100.078 132.269 99.9315 132.051 99.8158L129.822 102.411L129.238 104.881L128.962 104.797L129.565 102.244L131.982 99.4304L132.071 99.4706C132.417 99.628 132.634 99.8482 132.734 100.144C132.855 100.503 132.795 100.953 132.55 101.518C132.09 102.58 131.728 107.409 131.725 107.458Z" fill="url(#paint9_linear_3_425)"/>
<defs>
<linearGradient id="paint0_linear_3_425" x1="254.928" y1="307.605" x2="67.3208" y2="132.346" gradientUnits="userSpaceOnUse">
<stop stop-color="#DAE3FE"/>
<stop offset="1" stop-color="#E9EFFD"/>
</linearGradient>
<linearGradient id="paint1_linear_3_425" x1="224.074" y1="105.265" x2="113.08" y2="121.348" gradientUnits="userSpaceOnUse">
<stop stop-color="#09005D"/>
<stop offset="1" stop-color="#1A0F91"/>
</linearGradient>
<linearGradient id="paint2_linear_3_425" x1="128.46" y1="101.21" x2="105.637" y2="169.738" gradientUnits="userSpaceOnUse">
<stop stop-color="#FEBBBA"/>
<stop offset="1" stop-color="#FF928E"/>
</linearGradient>
<linearGradient id="paint3_linear_3_425" x1="85.6543" y1="126.812" x2="90.9438" y2="113.574" gradientUnits="userSpaceOnUse">
<stop stop-color="#FEBBBA"/>
<stop offset="1" stop-color="#FF928E"/>
</linearGradient>
<linearGradient id="paint4_linear_3_425" x1="100.794" y1="98.3207" x2="77.9324" y2="113.672" gradientUnits="userSpaceOnUse">
<stop stop-color="#FEBBBA"/>
<stop offset="1" stop-color="#FF928E"/>
</linearGradient>
<linearGradient id="paint5_linear_3_425" x1="86.5784" y1="83.1722" x2="109.342" y2="108.892" gradientUnits="userSpaceOnUse">
<stop stop-color="#09005D"/>
<stop offset="1" stop-color="#1A0F91"/>
</linearGradient>
<linearGradient id="paint6_linear_3_425" x1="98.5263" y1="94.4462" x2="75.5798" y2="109.854" gradientUnits="userSpaceOnUse">
<stop stop-color="#FEBBBA"/>
<stop offset="1" stop-color="#FF928E"/>
</linearGradient>
<linearGradient id="paint7_linear_3_425" x1="64.2647" y1="160.522" x2="74.9716" y2="92.8061" gradientUnits="userSpaceOnUse">
<stop stop-color="#FEBBBA"/>
<stop offset="1" stop-color="#FF928E"/>
</linearGradient>
<linearGradient id="paint8_linear_3_425" x1="125.691" y1="122.107" x2="107.065" y2="171.238" gradientUnits="userSpaceOnUse">
<stop stop-color="#FEBBBA"/>
<stop offset="1" stop-color="#FF928E"/>
</linearGradient>
<linearGradient id="paint9_linear_3_425" x1="128.883" y1="104.51" x2="133.583" y2="103.211" gradientUnits="userSpaceOnUse">
<stop stop-color="#F9B776"/>
<stop offset="1" stop-color="#F47960"/>
</linearGradient>
</defs>
</svg>
